<svg width="228" height="52" viewBox="0 0 228 52" fill="none" xmlns="http://www.w3.org/2000/svg">
<path d="M35.8647 3.86399C39.4181 3.90599 43.0128 3.658 46.5249 4.278C50.4089 4.98 53.921 6.344 56.648 9.36C59.0858 12.087 60.0775 15.351 60.2015 18.946C60.3254 21.921 60.0362 24.854 58.714 27.581C57.7636 29.606 56.3588 31.259 54.4994 32.498C53.921 32.912 54.0036 33.159 54.3342 33.655C56.6893 37.167 58.9619 40.68 61.2757 44.192C61.441 44.44 61.565 44.687 61.4823 45.059C61.3584 45.596 61.1105 45.762 60.532 45.762C55.9869 45.72 51.4005 45.72 46.8555 45.762C46.401 45.762 46.1117 45.638 45.9051 45.225C44.2111 42.25 42.517 39.316 40.8229 36.341C40.6163 35.928 40.3684 35.804 39.9139 35.804C39.0462 35.845 38.2198 35.845 37.3521 35.804C36.815 35.763 36.6084 35.928 36.6084 36.506C36.6497 39.357 36.6084 42.167 36.6497 45.018C36.6497 45.555 36.5671 45.762 35.9473 45.762C31.5675 45.72 27.1464 45.72 22.7666 45.762C22.1881 45.762 22.1055 45.596 22.1055 45.059C22.1468 42.25 22.1055 39.481 22.1055 36.672C22.1055 36.258 22.2294 36.01 22.56 35.763C23.7169 34.895 24.9565 34.151 26.0308 33.118C26.196 32.953 26.3613 32.788 26.6092 32.746C28.9644 31.052 31.3196 29.317 33.6747 27.623C34.4185 27.086 35.1209 26.218 35.8647 26.177C36.6084 26.135 37.3108 27.086 38.0545 27.581C40.2031 29.11 42.3104 30.68 44.459 32.25C44.6656 32.374 44.8722 32.498 45.0788 32.664C45.244 32.25 45.0374 31.961 44.9135 31.672C43.9218 28.573 42.9302 25.516 41.8972 22.458C41.7319 21.962 41.7732 21.714 42.2278 21.384C44.9548 19.442 47.6405 17.5 50.3676 15.516C50.5328 15.392 50.8221 15.31 50.8634 15.021C50.6568 14.897 50.4089 14.938 50.161 14.938C46.8141 14.938 43.4673 14.938 40.1205 14.938C39.6247 14.938 39.4181 14.814 39.2528 14.318C38.2611 11.095 37.1868 7.91399 36.1539 4.73199C36.0712 4.48399 36.0712 4.19499 35.8233 4.02999C35.782 4.07099 35.782 3.98799 35.8647 3.86399Z" fill="white"/>
<path d="M26.6507 32.87C26.4854 33.035 26.3614 33.283 26.0722 33.242C25.9069 33.077 25.659 33.118 25.4524 33.118C21.9403 33.118 18.4282 33.118 14.9161 33.118C14.2963 33.118 14.2137 33.366 14.2137 33.862C14.2137 37.581 14.2137 41.341 14.255 45.059C14.255 45.679 14.0897 45.803 13.4699 45.803C9.21411 45.762 4.95826 45.762 0.743741 45.803C0.165277 45.803 0 45.679 0 45.101C0.0413188 37.622 0.0413188 30.102 0 22.623C0 22.003 0.206598 21.879 0.785062 21.879C10.2884 21.879 19.7917 21.879 29.3364 21.879C30.1628 21.879 30.1628 21.879 29.9148 22.706C28.8819 25.846 27.8076 28.986 26.7746 32.126C26.692 32.333 26.4441 32.581 26.6507 32.87Z" fill="white"/>
<path d="M35.8648 3.86501C35.8648 3.94701 35.8648 4.07101 35.9061 4.15401C34.9971 6.96301 34.0467 9.814 33.1377 12.624C32.9311 13.203 32.7245 13.822 32.5593 14.442C32.4353 14.979 32.1874 15.103 31.6502 15.103C24.7913 15.103 17.9324 15.103 11.0735 15.103C7.64399 15.103 4.17321 15.103 0.743741 15.103C0.165277 15.103 0 14.979 0 14.401C0.0413189 11.137 0.0413189 7.87201 0 4.56701C0 4.07101 0.0826402 3.86501 0.661104 3.86501C12.3543 3.86501 24.0476 3.86501 35.7408 3.86501C35.7821 3.82301 35.8235 3.86501 35.8648 3.86501Z" fill="white"/>
<path d="M75.3503 25.117C75.3503 32.827 75.3503 40.421 75.3503 48.131C75.3503 48.949 75.6864 50 74.23 50C72.7736 50 73.1097 48.949 73.1097 48.131C73.1097 32.71 73.1097 17.29 73.1097 1.869C73.1097 1.051 72.7736 0 74.23 0C75.6864 0 75.3503 1.051 75.3503 1.869C75.3503 9.579 75.3503 17.407 75.3503 25.117Z" fill="white"/>
<path fill-rule="evenodd" clip-rule="evenodd" d="M103.586 39.625C103.539 39.822 103.488 40.033 103.488 40.269C103.066 40.34 102.751 40.123 102.47 39.93C102.201 39.745 101.963 39.581 101.691 39.717C100.033 40.269 98.9268 38.887 98.6503 38.058C98.3323 36.892 97.5268 36.295 96.7321 35.706C96.4903 35.527 96.2496 35.348 96.0239 35.155C95.4709 34.74 94.918 34.325 94.5033 33.911C94.0475 33.531 94.2597 33.193 94.4745 32.851C94.6505 32.57 94.8283 32.287 94.6415 31.976C94.5494 31.883 94.703 31.914 94.8566 31.945C94.9334 31.96 95.0102 31.976 95.0562 31.976C97.5444 32.39 101.691 30.455 102.935 28.243C103.765 26.861 103.074 25.617 101.553 25.064C98.2356 23.958 94.7798 23.82 91.324 23.682C91.1907 23.659 91.0395 23.623 90.8791 23.584C90.0415 23.382 88.9518 23.119 88.8358 24.511C88.8111 24.709 88.7598 24.929 88.7066 25.157C88.462 26.206 88.1748 27.439 90.2181 27.552C91.0648 27.552 90.8531 28.293 90.6944 28.849C90.6717 28.928 90.6501 29.003 90.6328 29.073C90.0801 31.56 89.5275 34.185 88.9748 36.81L88.974 36.814C88.8855 37.19 88.7934 37.566 88.7012 37.943C88.2174 39.92 87.7299 41.912 87.7299 44.002C87.7299 44.125 87.7211 44.257 87.7122 44.392C87.6709 45.012 87.626 45.685 88.4211 45.799C89.3887 45.937 89.8034 44.969 89.6652 44.14C89.4828 42.772 89.9019 41.585 90.3274 40.38C90.5469 39.758 90.7681 39.131 90.9093 38.472C91.1857 36.675 92.0151 36.537 93.3975 37.643C94.7798 38.749 96.1621 39.82 97.5444 40.892C98.9268 41.963 100.309 43.034 101.691 44.14C102.797 45.108 103.212 44.693 103.488 43.587L103.903 41.928C105.977 44.278 108.741 45.661 111.782 44.693C113.579 44.14 115.791 42.758 116.206 40.131C114.723 40.131 113.639 40.847 112.567 41.553C111.641 42.164 110.725 42.768 109.571 42.896C108.603 43.034 108.327 43.034 108.05 41.928C107.221 37.92 108.188 36.675 112.197 36.123C112.344 36.09 112.492 36.059 112.641 36.029C113.757 35.798 114.905 35.561 115.515 34.464C115.653 34.049 115.791 33.496 115.653 33.081C115.433 32.641 115.037 32.815 114.675 32.973C114.583 33.014 114.493 33.053 114.409 33.081C113.886 33.256 113.363 33.454 112.83 33.657C112.095 33.936 111.34 34.223 110.538 34.464C110.502 34.473 110.463 34.483 110.421 34.494C109.829 34.649 108.768 34.926 109.156 33.634C109.17 33.572 109.185 33.51 109.199 33.447C109.602 31.687 110.076 29.616 112.612 29.349C114.271 29.073 115.653 28.243 116.068 26.308C115.872 26.308 115.693 26.291 115.526 26.274C115.221 26.245 114.953 26.219 114.685 26.308C113.026 26.861 111.644 26.999 110.124 25.479C109.018 24.373 107.359 24.373 106.53 26.446C106.281 27.047 106.02 27.644 105.759 28.241C104.279 31.63 102.804 35.009 103.627 38.887C103.706 39.125 103.649 39.362 103.586 39.625ZM94.8553 29.073C96.6244 28.578 98.3641 28.092 99.7562 26.447C98.5079 25.198 97.3598 25.653 96.2516 26.093C95.519 26.383 94.8038 26.667 94.0887 26.447C93.5358 26.308 92.2917 26.032 92.5681 27.276C92.583 27.365 92.5963 27.463 92.6103 27.565C92.7257 28.411 92.8853 29.581 94.3651 29.211C94.5286 29.165 94.6921 29.119 94.8553 29.073Z" fill="white"/>
<path d="M149.243 25.202C151.454 26.308 152.007 27.967 151.593 30.04C151.178 32.528 149.934 34.74 149.243 37.09C148.966 37.781 148.551 38.611 149.104 39.164C149.657 39.717 150.487 39.44 151.178 39.164C151.593 39.025 152.145 38.887 152.56 38.887C155.601 39.578 156.154 37.781 156.569 35.293C157.122 32.528 157.122 29.764 158.781 27.276C159.472 26.308 160.025 26.17 160.854 26.308C161.822 26.584 162.098 27.276 161.96 28.243C161.96 29.764 161.407 31.284 160.992 32.805C160.716 33.911 160.025 35.017 160.578 36.675C162.789 34.325 164.725 32.252 165.692 29.349C166.107 28.381 166.245 27.137 167.628 27.276C169.148 27.552 169.148 28.796 169.148 29.902C169.148 32.943 167.213 35.708 167.213 38.887C167.213 39.855 166.383 40.822 167.351 41.79C168.042 42.481 167.351 43.034 166.936 43.449C166.383 44.14 165.83 43.864 165.278 43.449C163.757 42.481 162.651 39.164 163.481 37.505C163.481 37.367 163.619 37.228 163.757 37.228C164.172 37.228 164.725 38.472 164.863 36.952C164.863 36.537 165.001 36.261 164.31 36.123C163.619 36.123 163.066 36.122 162.651 36.675C161.96 37.643 161.269 38.472 160.578 39.302C159.61 40.408 158.781 41.79 156.984 40.546C156.845 40.408 156.431 40.408 156.292 40.408C153.942 42.481 150.763 41.652 148.137 42.896C146.063 43.864 143.575 41.375 144.266 39.164C144.819 37.228 145.51 35.293 146.063 33.496C147.446 31.008 148.275 28.243 149.243 25.202Z" fill="white"/>
<path d="M133.071 19.12C133.347 19.95 133.209 21.055 133.762 21.746C129.477 28.658 126.574 36.261 124.086 44.002C123.533 45.661 122.703 46.214 121.045 45.937C119.386 45.799 118.971 44.97 118.971 43.311C118.971 38.196 117.312 33.22 117.174 28.243C117.174 27.276 116.345 25.617 118.004 25.617C119.524 25.617 121.183 26.308 121.183 28.52C121.045 31.423 121.321 34.464 121.874 37.643C124.362 35.846 124.777 33.22 125.745 30.87C126.436 29.073 127.542 27.414 128.371 25.893C129.615 23.544 130.997 21.055 133.071 19.12Z" fill="white"/>
<path d="M183.387 43.173C182.696 39.855 183.387 36.676 183.802 33.496C183.94 31.976 184.493 30.455 184.493 28.935C184.355 27.276 185.184 26.723 186.705 27C187.949 27.276 188.64 27.829 188.226 29.349C187.258 33.082 186.29 36.814 185.323 40.546C185.184 41.652 183.664 41.79 183.387 43.173Z" fill="white"/>
<path fill-rule="evenodd" clip-rule="evenodd" d="M198.968 27.655C197.949 27.574 196.905 27.49 195.967 26.723C196.179 26.297 196.657 26.077 197.118 25.864C197.856 25.523 198.551 25.202 198.04 24.096C197.349 22.714 195.69 22.99 194.308 23.267C193.34 23.543 192.787 24.096 192.373 24.925C190.161 29.072 188.502 33.496 187.949 38.058C187.396 42.066 188.226 43.863 192.511 44.416C194.17 44.637 195.474 43.797 196.779 42.957C197.106 42.746 197.432 42.536 197.764 42.343C201.496 40.131 204.122 36.952 203.984 32.39C203.846 30.317 203.155 28.658 200.805 27.967C200.223 27.755 199.6 27.705 198.968 27.655ZM202.25 33.238C202.268 32.88 202.285 32.536 202.325 32.252C202.246 32.331 202.167 32.432 202.088 32.534C201.891 32.788 201.693 33.042 201.496 32.943C200.859 32.837 200.956 32.323 201.035 31.902C201.059 31.775 201.081 31.657 201.081 31.561C201.067 31.445 201.054 31.329 201.041 31.214C200.931 30.231 200.827 29.305 199.837 28.934C198.869 28.519 197.764 28.934 196.658 29.487C195.394 30.245 195.825 30.901 196.292 31.611C196.59 32.065 196.904 32.541 196.796 33.081C195.966 32.528 195.414 32.113 194.861 31.699C194.169 31.284 193.478 31.008 193.202 32.113C193.044 32.587 192.879 33.057 192.714 33.526C191.869 35.93 191.035 38.3 191.267 40.96C191.405 41.928 191.82 42.204 192.649 41.928C195.612 41.187 197.684 39.231 199.795 37.239C200.441 36.628 201.092 36.015 201.772 35.431C202.163 35.041 202.209 34.099 202.25 33.238Z" fill="white"/>
<path fill-rule="evenodd" clip-rule="evenodd" d="M219.809 34.0804C218.889 34.0982 218.784 34.9371 218.549 36.2857C218.4 37.1429 218.251 37.9643 218.101 38.7857C217.952 39.6071 217.803 40.4286 217.653 41.2857C217.611 41.5248 217.628 41.7972 217.644 42.0657C217.686 42.76 217.726 43.4286 216.757 43.4286C215.263 43.4286 213.769 42.7143 213.469 41.1429C213.193 39.1536 212.271 37.2874 211.184 35.087L211.181 35.0806C211.13 34.9771 211.078 34.8728 211.027 34.7677L210.93 34.5714C209.833 36.3422 209.806 38.2334 209.78 40.0654C209.75 42.2239 209.72 44.3 207.942 46C206.747 45.8571 206 45.1429 206 43.4286C206.181 40.9555 206.36 38.4594 206.541 35.9587L206.672 34.1428L206.676 34.0804C206.899 30.9941 207.122 27.908 207.344 24.8571C207.344 24.7318 207.33 24.5934 207.316 24.4503L207.315 24.4356C207.245 23.7659 207.167 23 208.39 23C209.586 23 210.183 23.8571 210.332 24.7143C210.757 26.5824 211.52 28.3119 212.291 30.0605L212.292 30.063C212.878 31.389 213.467 32.7261 213.918 34.1428C214.217 35 214.515 35.7143 215.113 36.4285C215.155 36.4886 215.2 36.56 215.248 36.6366C215.543 37.1066 215.965 37.777 216.607 37.2857C217.28 36.9 216.863 36.5142 216.446 36.1285L216.432 36.1158C216.391 36.0772 216.349 36.0386 216.308 36C217.717 35.2412 216.203 35.3645 216.6 35.1662L217.299 34.7677C217.139 34.3719 216.788 34.2844 216.88 34.2255C217.926 33.5112 218.251 28.8167 217.653 27.9595C217.566 27.8348 218.252 27.3727 218.101 27.2718C217.136 25.6769 217.571 25.8872 218.101 25.2794C218.549 24.708 219.595 26.4285 220.193 26.5714C220.609 26.6511 221.09 26.331 221.278 26.2055C221.327 26.1732 221.356 26.1538 221.36 26.1575C221.365 26.163 221.313 26.2206 221.183 26.3646C221.145 26.4071 221.099 26.4571 221.047 26.5154C220.966 26.4435 220.534 27.2349 220.997 26.5714L221.047 26.5154C221.07 26.5364 221.064 26.6311 220.997 26.8571C225.018 24.6338 223.979 26.0982 223.573 26.6712C223.509 26.7608 223.461 26.8287 223.45 26.8571C223.388 27.0209 223.227 27.3791 223.011 27.858C222.042 30.0137 218.918 33.7961 219.809 34.0804Z" fill="white"/>
<path fill-rule="evenodd" clip-rule="evenodd" d="M140.248 27.612C139.244 27.521 138.252 27.431 137.355 26.861C137.443 26.248 137.919 26.079 138.432 25.896C138.728 25.791 139.037 25.681 139.291 25.479C140.12 24.787 139.982 24.096 139.152 23.543C137.77 22.714 135.005 23.129 134.176 24.511C131.826 28.934 130.305 33.634 129.338 38.472C128.647 41.928 130.305 43.587 133.761 44.278C135.869 44.774 137.421 43.713 138.916 42.691C139.087 42.574 139.258 42.457 139.429 42.343C143.023 39.993 145.788 36.952 145.373 32.252C145.235 30.178 144.543 28.658 142.332 27.967C141.651 27.74 140.946 27.676 140.248 27.612ZM134.131 33.888C133.45 35.842 132.794 37.725 132.794 39.855C132.656 42.205 133.07 42.62 135.144 41.514C136.414 40.936 137.685 40.166 138.875 39.444C139.109 39.302 139.34 39.162 139.567 39.026C140.261 38.621 140.665 37.974 141.061 37.338C141.613 36.455 142.151 35.592 143.438 35.432C143.714 35.293 144.129 33.358 143.438 33.082C142.653 32.745 142.686 32.409 142.727 31.999C142.737 31.904 142.746 31.804 142.746 31.699C142.885 30.593 142.47 29.764 141.364 29.211C140.12 28.658 139.152 28.935 138.185 29.626C137.879 29.844 137.669 30.215 137.461 30.585C137.01 31.384 136.561 32.179 135.144 31.423C135.144 31.285 134.867 31.838 134.729 32.114C134.539 32.717 134.333 33.306 134.131 33.888Z" fill="white"/>
<path d="M133.069 19.12C133.069 14.834 132.931 10.549 133.069 6.26399C133.069 5.29599 132.378 3.77598 133.898 3.63798C135.419 3.49898 137.216 2.80798 138.46 4.74298C140.257 7.36998 142.192 9.85797 143.989 12.346C144.404 13.037 144.819 13.728 145.924 14.143C145.924 10.964 146.063 8.06098 145.924 5.01998C145.786 3.22298 146.892 3.49897 147.998 3.36097C149.242 3.22297 149.933 3.49898 149.795 5.01998C149.657 9.85798 149.795 14.558 149.795 19.396C149.795 20.225 150.348 21.469 149.242 21.746C147.86 22.022 146.339 22.437 145.233 20.778C143.16 17.737 140.948 14.834 138.736 11.931C138.322 11.379 137.769 10.826 136.939 9.85798C136.939 13.314 136.939 16.078 136.939 18.843C136.939 21.884 136.939 21.884 133.622 21.746C132.654 21.193 132.931 20.087 133.069 19.12Z" fill="white"/>
<path d="M154.357 12.484C154.357 9.99599 154.357 7.508 154.357 4.881C154.357 3.776 154.771 3.36099 155.877 3.36099C159.471 3.36099 163.203 3.49899 166.797 3.36099C168.18 3.36099 168.318 4.052 168.318 5.158C168.318 6.264 168.318 7.093 166.797 6.955C164.586 6.817 162.374 6.955 160.162 6.955C158.642 6.817 158.504 7.646 158.504 8.89C158.504 10.134 158.78 10.825 160.301 10.825C162.374 10.687 164.309 10.964 166.383 10.825C167.903 10.687 168.042 11.517 168.042 12.761C168.042 14.005 167.765 14.558 166.383 14.419C164.309 14.281 162.098 14.419 160.024 14.419C158.365 14.281 158.504 15.387 158.504 16.355C158.504 17.461 158.365 18.428 160.024 18.428C162.236 18.29 164.448 18.428 166.659 18.428C168.18 18.29 168.318 19.119 168.318 20.363C168.318 21.469 168.042 22.16 166.659 22.16C163.065 22.16 159.333 22.16 155.739 22.16C154.495 22.16 154.218 21.608 154.357 20.502C154.357 17.737 154.357 15.111 154.357 12.484Z" fill="white"/>
<path d="M179.101 22.022C176.613 22.16 174.263 21.746 172.051 20.64C171.36 20.225 170.116 19.949 171.083 18.843C171.636 18.152 171.774 16.216 173.71 17.322C175.921 18.704 178.41 18.704 181.036 18.566C182.28 18.428 183.248 18.013 183.386 16.631C183.386 15.249 182.418 14.972 181.313 14.696C179.516 14.419 177.857 14.143 176.06 13.728C173.019 13.037 171.498 11.378 171.498 8.61399C171.498 5.71099 172.88 4.18999 175.921 3.49899C178.963 2.80799 182.004 3.084 184.907 4.19C185.46 4.328 186.98 4.467 186.012 5.71099C185.321 6.53999 185.321 8.47499 183.386 7.64599C181.451 6.81599 179.515 6.678 177.442 6.955C176.474 7.093 175.783 7.231 175.645 8.475C175.645 9.581 176.336 10.134 177.166 10.411C178.963 10.825 180.76 11.102 182.695 11.378C186.151 12.069 187.395 13.59 187.395 16.493C187.395 19.396 185.874 21.054 182.695 21.746C181.589 22.16 180.345 22.022 179.101 22.022Z" fill="white"/>
<path d="M198.314 22.16C195.688 22.16 193.338 21.746 190.988 20.64C190.297 20.364 189.191 19.949 190.021 18.981C190.573 18.29 190.712 16.355 192.509 17.322C194.72 18.566 197.07 18.843 199.559 18.705C200.803 18.566 202.047 18.428 202.185 16.769C202.323 15.249 201.217 14.972 199.973 14.696C198.176 14.42 196.517 14.143 194.72 13.728C191.818 13.037 190.435 11.378 190.297 8.75201C190.297 5.84901 191.679 4.32901 194.72 3.49901C197.762 2.80801 200.664 2.94602 203.567 4.05202C204.259 4.32902 205.779 4.32901 205.088 5.57301C204.535 6.54001 204.259 8.61401 202.047 7.50801C200.388 6.67801 198.453 6.67801 196.517 6.81701C195.55 6.95501 194.72 6.95502 194.72 8.19902C194.582 9.44302 195.412 9.99601 196.379 10.273C198.176 10.687 199.835 10.825 201.632 11.24C205.088 11.931 206.47 13.452 206.47 16.355C206.47 19.396 205.088 21.055 201.632 21.746C200.526 22.022 199.42 22.022 198.314 22.16Z" fill="white"/>
<path d="M95.6087 3.49899C97.2675 3.49899 99.0645 3.63699 100.723 3.49899C102.382 3.36099 102.244 4.19 102.382 5.434C102.382 6.678 102.106 7.231 100.723 7.093C98.9263 6.955 96.991 7.093 95.194 7.093C93.6734 6.955 92.9823 7.36899 93.1205 9.02799C93.1205 10.549 93.397 11.24 95.194 11.102C96.991 10.963 98.788 11.102 100.585 11.102C102.244 10.963 102.382 11.655 102.382 13.175C102.382 14.696 101.691 14.834 100.447 14.834C98.6498 14.696 96.7146 14.834 94.9175 14.834C93.6734 14.834 93.1205 15.11 93.2587 16.493C93.397 17.599 93.2587 18.566 93.2587 19.672C93.397 21.193 93.2587 22.16 91.1852 22.16C89.25 22.16 89.25 21.193 89.25 19.81C89.25 14.972 89.25 10.272 89.25 5.434C89.25 4.052 89.6647 3.49899 91.047 3.63699C92.2911 3.63699 93.9499 3.49899 95.6087 3.49899Z" fill="white"/>
<path d="M119.661 14.281C119.661 12.622 119.523 10.825 119.661 9.16702C119.937 7.23102 119.108 6.67802 117.311 6.95502C116.62 7.09302 116.067 6.95502 115.376 6.95502C113.993 7.09302 113.164 6.81702 113.164 5.02002C113.164 3.36102 113.855 3.22302 115.238 3.22302C119.523 3.22302 123.808 3.22302 128.093 3.22302C129.337 3.22302 130.167 3.22302 130.167 5.02002C130.167 6.54002 129.614 6.95502 128.231 6.95502C123.808 6.95502 123.808 7.09302 123.808 11.378C123.808 14.143 123.67 16.908 123.808 19.672C123.946 21.469 123.117 21.884 121.596 21.884C120.076 21.884 119.385 21.469 119.523 19.811C119.799 18.014 119.661 16.217 119.661 14.281Z" fill="white"/>
<path d="M106.114 12.346C106.114 9.858 106.252 7.50801 106.114 5.02001C105.976 3.08401 107.22 3.499 108.326 3.361C109.57 3.361 110.538 3.22301 110.538 5.02001C110.399 9.99601 110.399 14.972 110.538 20.087C110.538 22.022 109.432 21.746 108.188 21.884C106.805 22.022 106.114 21.608 106.252 20.087C106.114 17.461 106.114 14.972 106.114 12.346Z" fill="white"/>
<path d="M173.335 52C172.546 47.0975 173.335 42.3993 173.809 37.701C173.967 35.4541 174.599 33.2071 174.599 30.9601C174.441 28.5088 175.389 27.6918 177.125 28.1003C178.547 28.5088 179.336 29.3259 178.862 31.5729C177.757 37.0882 176.652 42.6036 175.546 48.1189C175.389 49.7531 173.652 49.9574 173.335 52Z" fill="white"/>
<path d="M185.083 31.6159C181.477 31.7327 178.271 30.3542 175.014 29.2798C173.445 28.8324 171.953 27.9281 170.359 27.6328C168.594 27.4627 168.168 26.4414 168.739 24.821C169.259 23.5039 169.966 22.8502 171.484 23.6025C175.218 25.3933 178.953 27.1832 182.687 28.974C183.821 29.3408 183.685 31.0426 185.083 31.6159Z" fill="white"/>
</svg>
