<svg width="350" height="66" viewBox="0 0 350 66" fill="none" xmlns="http://www.w3.org/2000/svg">
<path d="M47.0279 5.06734C51.6873 5.12152 56.4009 4.79645 61.0061 5.60913C66.0989 6.53017 70.7041 8.31807 74.2799 12.2731C77.4764 15.8489 78.7767 20.1291 78.9393 24.8426C79.1018 28.7435 78.7226 32.5902 76.9888 36.166C75.7427 38.8208 73.9006 40.9879 71.4626 42.6133C70.7041 43.1551 70.8124 43.4802 71.2459 44.1303C74.3341 48.7355 77.3139 53.3407 80.3479 57.9459C80.5646 58.271 80.7272 58.5961 80.6188 59.0837C80.4563 59.788 80.1312 60.0047 79.3727 60.0047C73.413 59.9506 67.3992 59.9506 61.4395 60.0047C60.8435 60.0047 60.4643 59.8422 60.1934 59.3004C57.972 55.3995 55.7507 51.5528 53.5294 47.652C53.2585 47.1102 52.9334 46.9476 52.3374 46.9476C51.1997 47.0018 50.1161 47.0018 48.9783 46.9476C48.274 46.8934 48.0031 47.1102 48.0031 47.8687C48.0573 51.607 48.0031 55.2912 48.0573 59.0295C48.0573 59.7338 47.9489 60.0047 47.1363 60.0047C41.3933 59.9506 35.5962 59.9506 29.8532 60.0047C29.0947 60.0047 28.9863 59.788 28.9863 59.0837C29.0405 55.3995 28.9863 51.7695 28.9863 48.0854C28.9863 47.5436 29.1489 47.2185 29.5823 46.8934C31.0993 45.7557 32.7247 44.7805 34.1333 43.426C34.35 43.2093 34.5668 42.9926 34.8918 42.9384C37.98 40.717 41.0682 38.4415 44.1564 36.2202C45.1316 35.5159 39.0248 28.5542 40 28.5C40.9752 28.4459 48.9242 35.5159 49.8994 36.166C52.7167 38.1706 55.4798 40.2294 58.2971 42.2882C58.568 42.4508 58.8389 42.6133 59.1098 42.83C59.3265 42.2882 59.0556 41.909 58.8931 41.5297C57.5928 37.4663 56.2925 33.4571 54.938 29.4478C54.7213 28.7977 54.7755 28.4726 55.3715 28.0392C58.9473 25.4928 62.4689 22.9464 66.0447 20.3458C66.2614 20.1832 66.6407 20.0749 66.6948 19.6956C66.4239 19.5331 66.0989 19.5873 65.7738 19.5873C61.3853 19.5873 56.9968 19.5873 52.6083 19.5873C51.9582 19.5873 51.6873 19.4247 51.4706 18.7746C50.1703 14.5486 48.7616 10.3769 47.4072 6.2051C47.2988 5.88003 47.2988 5.50077 46.9737 5.28405C46.9195 5.33823 46.9196 5.22988 47.0279 5.06734Z" fill="#AD283D"/>
<path d="M34.9454 43.1009C34.7287 43.3176 34.5661 43.6427 34.1869 43.5885C33.9702 43.3718 33.6451 43.426 33.3742 43.426C28.769 43.426 24.1638 43.426 19.5586 43.426C18.7459 43.426 18.6375 43.7511 18.6375 44.4012C18.6375 49.2773 18.6375 54.2076 18.6917 59.0837C18.6917 59.8964 18.475 60.0589 17.6623 60.0589C12.0819 60.0047 6.50147 60.0047 0.975222 60.0589C0.216717 60.0589 0 59.8964 0 59.1379C0.0541789 49.3315 0.0541789 39.4709 0 29.6646C0 28.8519 0.270899 28.6893 1.0294 28.6893C13.4905 28.6893 25.9517 28.6893 38.467 28.6893C39.5506 28.6893 39.5506 28.6893 39.2255 29.7729C37.871 33.8905 36.4624 38.0081 35.1079 42.1257C34.9996 42.3966 34.6745 42.7217 34.9454 43.1009Z" fill="#EB2A41"/>
<path d="M47.0273 5.06731C47.0273 5.17567 47.0273 5.3382 47.0815 5.44655C45.8895 9.13072 44.6434 12.8691 43.4515 16.5532C43.1806 17.3117 42.9097 18.1244 42.693 18.9371C42.5304 19.6414 42.2054 19.804 41.501 19.804C32.5073 19.804 23.5136 19.804 14.5199 19.804C10.0231 19.804 5.47207 19.804 0.975222 19.804C0.216717 19.804 0 19.6414 0 18.8829C0.0541789 14.6028 0.0541789 10.3227 0 5.98834C0 5.3382 0.108361 5.06731 0.866866 5.06731C16.1995 5.06731 31.5321 5.06731 46.8647 5.06731C46.9189 5.01313 46.9731 5.06731 47.0273 5.06731Z" fill="#EB2A41"/>
<path d="M98.8043 32.9341C98.8043 43.0441 98.8043 53.001 98.8043 63.111C98.8043 64.1833 99.245 65.562 97.3352 65.562C95.4255 65.562 95.8662 64.1833 95.8662 63.111C95.8662 42.891 95.8662 22.671 95.8662 2.45097C95.8662 1.37869 95.4255 0 97.3352 0C99.245 0 98.8043 1.37869 98.8043 2.45097C98.8043 12.561 98.8043 22.8241 98.8043 32.9341Z" fill="#AD283D"/>
<path fill-rule="evenodd" clip-rule="evenodd" d="M135.825 51.9581C135.764 52.2159 135.697 52.4927 135.697 52.8026C135.143 52.8949 134.73 52.6108 134.363 52.3579C134.009 52.1143 133.697 51.8997 133.341 52.0775C131.166 52.8025 129.716 50.9899 129.353 49.9024C128.937 48.3737 127.88 47.5909 126.838 46.8187C126.521 46.5837 126.206 46.3498 125.91 46.0961C125.185 45.5523 124.46 45.0085 123.916 44.4647C123.318 43.9667 123.596 43.5234 123.878 43.0746C124.109 42.7069 124.342 42.3354 124.097 41.9272C123.976 41.8064 124.178 41.8467 124.379 41.8869C124.48 41.9071 124.58 41.9272 124.641 41.9272C127.903 42.471 133.341 39.9334 134.972 37.0333C136.06 35.2207 135.154 33.5895 133.16 32.8644C128.81 31.4144 124.278 31.2331 119.747 31.0519C119.572 31.0227 119.374 30.9749 119.164 30.9241C118.065 30.6589 116.636 30.3138 116.484 32.1394C116.452 32.3986 116.385 32.6869 116.315 32.9865C115.994 34.3625 115.618 35.9782 118.297 36.127C119.407 36.127 119.13 37.0984 118.921 37.8269C118.892 37.931 118.863 38.0302 118.841 38.1208C118.116 41.3817 117.391 44.8238 116.667 48.2659L116.666 48.2712C116.549 48.7646 116.429 49.2581 116.308 49.7523C115.674 52.3441 115.034 54.9564 115.034 57.6965C115.034 57.8581 115.023 58.0313 115.011 58.2078C114.957 59.0207 114.898 59.9039 115.941 60.0528C117.209 60.2341 117.753 58.9652 117.572 57.8777C117.333 56.0842 117.882 54.5274 118.44 52.947C118.728 52.1316 119.018 51.3099 119.203 50.4463C119.566 48.0899 120.653 47.9086 122.466 49.3587C124.278 50.8087 126.091 52.2134 127.903 53.6182C129.716 55.0229 131.529 56.4277 133.341 57.8777C134.791 59.1465 135.335 58.6027 135.697 57.1526L136.241 54.9777C138.96 58.059 142.585 59.8716 146.573 58.6028C148.929 57.8778 151.829 56.0651 152.373 52.6212C150.429 52.6212 149.007 53.5592 147.602 54.4852C146.387 55.2862 145.186 56.0782 143.673 56.2464C142.404 56.4276 142.041 56.4277 141.679 54.9777C140.591 49.7212 141.86 48.0899 147.117 47.3649C147.309 47.3222 147.503 47.282 147.699 47.2416C149.162 46.9395 150.667 46.6289 151.467 45.1898C151.648 44.646 151.829 43.921 151.648 43.3772C151.359 42.7995 150.84 43.0274 150.366 43.2356C150.245 43.2886 150.127 43.3404 150.017 43.3772C149.331 43.6057 148.646 43.8662 147.947 44.1318C146.982 44.4983 145.992 44.8745 144.941 45.1898C144.894 45.2017 144.842 45.2152 144.788 45.2294C144.012 45.4323 142.621 45.7958 143.129 44.1023C143.148 44.0209 143.166 43.9389 143.185 43.8564C143.714 41.5487 144.335 38.8333 147.66 38.4833C149.835 38.1208 151.648 37.0332 152.192 34.4957C151.935 34.4957 151.701 34.4729 151.481 34.4516C151.081 34.4127 150.73 34.3786 150.379 34.4957C148.204 35.2207 146.392 35.402 144.398 33.4082C142.948 31.9581 140.773 31.9582 139.685 34.677C139.359 35.4643 139.017 36.2476 138.675 37.0305C136.735 41.4741 134.8 45.9045 135.879 50.99C135.982 51.3014 135.908 51.6127 135.825 51.9581ZM124.377 38.1211C126.697 37.4723 128.978 36.8343 130.804 34.677C129.167 33.0402 127.661 33.6369 126.208 34.213C125.248 34.5938 124.31 34.9655 123.372 34.677C122.647 34.4957 121.016 34.1332 121.378 35.7645C121.398 35.8818 121.415 36.0097 121.433 36.1438C121.585 37.2527 121.794 38.7872 123.735 38.3021C123.949 38.2409 124.163 38.1809 124.377 38.1211Z" fill="#EB2A41"/>
<path d="M195.693 33.0457C198.593 34.4957 199.318 36.6708 198.775 39.3896C198.231 42.6522 196.6 45.5524 195.693 48.6337C195.331 49.54 194.787 50.6275 195.512 51.3526C196.237 52.0776 197.325 51.7151 198.231 51.3526C198.775 51.1713 199.5 50.99 200.043 50.99C204.031 51.8963 204.756 49.5399 205.3 46.2773C206.025 42.6522 206.025 39.0271 208.2 35.7645C209.106 34.4957 209.831 34.3144 210.919 34.4957C212.188 34.8582 212.55 35.7645 212.369 37.0333C212.369 39.0271 211.644 41.0209 211.1 43.0147C210.738 44.4648 209.831 45.9148 210.556 48.0899C213.456 45.0085 215.994 42.2897 217.263 38.4833C217.807 37.2145 217.988 35.5832 219.8 35.7645C221.794 36.127 221.794 37.7583 221.794 39.2084C221.794 43.196 219.257 46.8211 219.257 50.99C219.257 52.2588 218.169 53.5276 219.438 54.7963C220.344 55.7026 219.438 56.4277 218.894 56.9714C218.169 57.8777 217.444 57.5152 216.719 56.9714C214.725 55.7026 213.275 51.3525 214.363 49.1775C214.363 48.9962 214.544 48.8149 214.725 48.8149C215.269 48.8149 215.994 50.4462 216.175 48.4524C216.175 47.9086 216.356 47.5462 215.45 47.3649C214.544 47.3649 213.819 47.3648 213.275 48.0899C212.369 49.3586 211.463 50.4462 210.556 51.5338C209.288 52.9838 208.2 54.7964 205.844 53.1651C205.662 52.9839 205.119 52.9838 204.937 52.9838C201.856 55.7026 197.687 54.6151 194.243 56.2464C191.524 57.5152 188.262 54.2526 189.168 51.3526C189.893 48.815 190.799 46.2773 191.524 43.921C193.337 40.6584 194.425 37.0333 195.693 33.0457Z" fill="#EB2A41"/>
<path d="M174.485 25.0705C174.848 26.158 174.667 27.608 175.392 28.5143C169.773 37.5771 165.966 47.5462 162.704 57.6965C161.979 59.8716 160.891 60.5966 158.716 60.234C156.541 60.0528 155.997 58.9653 155.997 56.7902C155.997 50.0838 153.822 43.5585 153.641 37.0333C153.641 35.7645 152.553 33.5894 154.729 33.5894C156.722 33.5894 158.897 34.4958 158.897 37.3959C158.716 41.2022 159.079 45.1898 159.804 49.3587C163.066 47.0024 163.61 43.5586 164.879 40.4772C165.785 38.1209 167.235 35.9458 168.323 33.952C169.954 30.8706 171.767 27.6081 174.485 25.0705Z" fill="#EB2A41"/>
<path d="M240.463 56.6089C239.557 52.2588 240.463 48.0899 241.007 43.921C241.188 41.9272 241.913 39.9334 241.913 37.9396C241.732 35.7645 242.82 35.0395 244.813 35.402C246.445 35.7645 247.351 36.4895 246.807 38.4833C245.538 43.3772 244.27 48.2712 243.001 53.1651C242.82 54.6152 240.826 54.7964 240.463 56.6089Z" fill="#EB2A41"/>
<path d="M228.391 64C227.47 58.0762 228.391 52.3991 228.944 46.7221C229.128 44.007 229.865 41.2919 229.865 38.5768C229.681 35.6149 230.787 34.6276 232.813 35.1212C234.471 35.6149 235.392 36.6021 234.839 39.3172C233.549 45.9816 232.261 52.646 230.971 59.3104C230.787 61.2851 228.76 61.5318 228.391 64Z" fill="#EB2A41"/>
<path fill-rule="evenodd" clip-rule="evenodd" d="M285.5 42.0434C284.4 42.0658 284.275 43.1183 283.994 44.8106C283.816 45.8862 283.638 46.9169 283.459 47.9476C283.28 48.9783 283.102 50.0091 282.924 51.0846C282.874 51.3845 282.893 51.7263 282.913 52.0633C282.963 52.9344 283.011 53.7734 281.852 53.7734C280.068 53.7734 278.282 52.8772 277.925 50.9054C277.594 48.4092 276.493 46.0675 275.195 43.3065L275.191 43.2984C275.129 43.1685 275.068 43.0377 275.006 42.9058L274.89 42.6594C273.58 44.8815 273.547 47.2546 273.517 49.5534C273.48 52.2617 273.445 54.8669 271.32 57C269.892 56.8207 269 55.9245 269 53.7734C269.216 50.6703 269.431 47.5381 269.646 44.4003L269.803 42.1217L269.808 42.0434C270.074 38.1707 270.34 34.2983 270.606 30.4701C270.606 30.3129 270.59 30.1392 270.573 29.9596L270.571 29.9412C270.488 29.1009 270.395 28.1398 271.856 28.1398C273.284 28.1398 273.998 29.2153 274.176 30.2909C274.684 32.6349 275.596 34.8052 276.517 36.9992L276.518 37.0023C277.218 38.6663 277.922 40.3441 278.461 42.1217C278.818 43.1972 279.175 44.0936 279.889 44.9898C279.939 45.0652 279.993 45.1547 280.05 45.2508C280.403 45.8407 280.907 46.6819 281.674 46.0654C282.478 45.5814 281.979 45.0974 281.481 44.6134L281.465 44.5974C281.415 44.5489 281.365 44.5005 281.317 44.4521C283 43.5 281.192 43.6546 281.665 43.4058L282.5 42.9058C282.31 42.4091 281.89 42.2994 282 42.2255C283.25 41.3292 283.638 35.4385 282.924 34.363C282.82 34.2064 283.639 33.6267 283.459 33.5C282.305 31.4987 282.825 31.7626 283.459 31C283.994 30.283 285.244 32.4419 285.958 32.6212C286.456 32.7211 287.03 32.3195 287.255 32.1621C287.313 32.1215 287.348 32.0972 287.352 32.1018C287.359 32.1087 287.297 32.181 287.141 32.3617C287.095 32.415 287.041 32.4777 286.979 32.5509C286.882 32.4607 286.366 33.4537 286.919 32.6212L286.979 32.5509C287.007 32.5773 286.999 32.696 286.919 32.9797C291.724 30.1898 290.483 32.0274 289.997 32.7464C289.921 32.8589 289.863 32.944 289.85 32.9797C289.776 33.1851 289.583 33.6347 289.326 34.2355C288.167 36.9405 284.435 41.6866 285.5 42.0434Z" fill="#EB2A41"/>
<path fill-rule="evenodd" clip-rule="evenodd" d="M260.894 36.2621C259.558 36.1556 258.189 36.0464 256.959 35.0395C257.237 34.482 257.864 34.1924 258.469 33.9132C259.437 33.4663 260.347 33.046 259.677 31.5956C258.771 29.783 256.596 30.1456 254.783 30.5081C253.515 30.8706 252.79 31.5955 252.246 32.6831C249.346 38.1208 247.171 43.9209 246.446 49.9024C245.721 55.1588 246.808 57.5152 252.427 58.2402C254.602 58.5302 256.313 57.4282 258.024 56.3262C258.452 56.0506 258.88 55.7751 259.315 55.5214C264.209 52.6213 267.653 48.4524 267.471 42.4709C267.29 39.7521 266.384 37.577 263.302 36.6707C262.539 36.3932 261.723 36.3282 260.894 36.2621ZM265.198 43.5835C265.221 43.1138 265.243 42.6626 265.296 42.2897C265.193 42.3933 265.089 42.5264 264.985 42.6596C264.727 42.9925 264.468 43.3254 264.209 43.196C263.374 43.0568 263.5 42.3831 263.604 41.8316C263.636 41.665 263.665 41.5096 263.665 41.3834C263.646 41.2317 263.629 41.08 263.612 40.9293C263.468 39.6399 263.332 38.4264 262.034 37.9395C260.765 37.3957 259.315 37.9395 257.865 38.6646C256.207 39.6591 256.773 40.5188 257.385 41.4492C257.777 42.0449 258.188 42.6696 258.046 43.3772C256.959 42.6522 256.234 42.1085 255.509 41.5647L255.508 41.5646C254.602 41.0208 253.696 40.6583 253.333 42.1084C253.126 42.7297 252.909 43.3462 252.693 43.9611C251.585 47.1128 250.492 50.2204 250.796 53.7088C250.977 54.9776 251.521 55.3401 252.608 54.9776C256.493 54.0063 259.21 51.4418 261.978 48.829C262.826 48.0286 263.679 47.2236 264.571 46.4585C265.083 45.9466 265.143 44.7118 265.198 43.5835Z" fill="#EB2A41"/>
<path fill-rule="evenodd" clip-rule="evenodd" d="M183.898 36.2061C182.582 36.0867 181.281 35.9686 180.106 35.2207C180.221 34.4168 180.845 34.195 181.517 33.956C181.906 33.8178 182.311 33.6738 182.643 33.4081C183.731 32.5018 183.55 31.5955 182.462 30.8705C180.65 29.783 177.024 30.3268 175.937 32.1393C172.856 37.9395 170.862 44.1023 169.593 50.4462C168.687 54.9776 170.862 57.1526 175.393 58.0589C178.157 58.7092 180.192 57.3178 182.152 55.9777C182.377 55.8238 182.601 55.6707 182.825 55.5213C187.537 52.44 191.162 48.4524 190.619 42.2897C190.437 39.5709 189.531 37.577 186.631 36.6707C185.738 36.3731 184.815 36.2893 183.898 36.2061ZM175.877 44.4349C174.985 46.9964 174.124 49.4664 174.124 52.2589C173.943 55.3403 174.487 55.884 177.206 54.4339C178.872 53.6766 180.538 52.6662 182.098 51.7199C182.405 51.5338 182.708 51.3501 183.006 51.1713C183.916 50.6405 184.445 49.7925 184.965 48.9591C185.688 47.8003 186.394 46.6696 188.081 46.4587C188.444 46.2775 188.987 43.7399 188.081 43.3774C187.052 42.9364 187.096 42.4955 187.149 41.958C187.162 41.8326 187.175 41.7019 187.175 41.5648C187.356 40.1148 186.812 39.0272 185.362 38.3022C183.731 37.5772 182.462 37.9397 181.193 38.846C180.792 39.1327 180.518 39.6189 180.244 40.1038C179.652 41.1517 179.064 42.1936 177.206 41.2023C177.206 41.021 176.843 41.746 176.662 42.1085C176.412 42.8995 176.143 43.6713 175.877 44.4349Z" fill="#EB2A41"/>
<path d="M174.485 25.0705C174.485 19.4516 174.304 13.8326 174.485 8.21363C174.485 6.94484 173.579 4.9511 175.572 4.76984C177.566 4.58859 179.922 3.68228 181.554 6.21987C183.91 9.66372 186.448 12.9263 188.804 16.1889C189.348 17.0952 189.892 18.0015 191.342 18.5452C191.342 14.3763 191.523 10.57 191.342 6.5824C191.16 4.22607 192.61 4.58856 194.06 4.40731C195.692 4.22605 196.598 4.58859 196.417 6.5824C196.235 12.9263 196.417 19.089 196.417 25.4329C196.417 26.5205 197.142 28.1518 195.692 28.5143C193.879 28.8768 191.885 29.4205 190.435 27.2455C187.716 23.2579 184.816 19.4515 181.916 15.6452C181.373 14.9202 180.647 14.1951 179.56 12.9263C179.56 17.4577 179.56 21.0829 179.56 24.708C179.56 28.6956 179.56 28.6955 175.21 28.5143C173.941 27.7893 174.304 26.3393 174.485 25.0705Z" fill="#AD283D"/>
<path d="M202.398 16.3701C202.398 13.1075 202.398 9.84493 202.398 6.40107C202.398 4.95103 202.942 4.4073 204.392 4.4073C209.104 4.4073 213.998 4.58856 218.711 4.4073C220.523 4.4073 220.705 5.31356 220.705 6.76361C220.705 8.21365 220.705 9.30116 218.711 9.11991C215.811 8.93865 212.911 9.11991 210.011 9.11991C208.017 8.93865 207.836 10.0262 207.836 11.6575C207.836 13.2888 208.198 14.1952 210.192 14.1952C212.911 14.0139 215.448 14.3764 218.167 14.1952C220.161 14.0139 220.342 15.1014 220.342 16.7327C220.342 18.364 219.98 19.089 218.167 18.9078C215.448 18.7265 212.548 18.9078 209.829 18.9078C207.654 18.7265 207.836 20.1766 207.836 21.4454C207.836 22.8954 207.654 24.1642 209.829 24.1642C212.729 23.983 215.63 24.1642 218.53 24.1642C220.523 23.983 220.705 25.0704 220.705 26.7017C220.705 28.1518 220.342 29.058 218.53 29.058C213.817 29.058 208.923 29.058 204.21 29.058C202.579 29.058 202.217 28.3331 202.398 26.8831C202.398 23.2579 202.398 19.814 202.398 16.3701Z" fill="#AD283D"/>
<path d="M234.843 28.8768C231.581 29.0581 228.499 28.5143 225.599 27.0642C224.693 26.5205 223.062 26.158 224.33 24.7079C225.056 23.8017 225.237 21.264 227.774 22.7141C230.674 24.5266 233.937 24.5267 237.381 24.3454C239.012 24.1642 240.281 23.6203 240.462 21.8078C240.462 19.9952 239.193 19.6328 237.743 19.2703C235.387 18.9078 233.212 18.5452 230.856 18.0015C226.868 17.0952 224.874 14.9201 224.874 11.295C224.874 7.4886 226.687 5.49477 230.674 4.58849C234.662 3.68221 238.65 4.04472 242.456 5.49477C243.181 5.67602 245.175 5.85734 243.906 7.48865C243 8.57618 243 11.1137 240.462 10.0262C237.925 8.93863 235.387 8.75737 232.668 9.11988C231.399 9.30114 230.493 9.48246 230.312 11.1138C230.312 12.5638 231.218 13.2888 232.306 13.6513C234.662 14.195 237.018 14.5576 239.556 14.9201C244.087 15.8264 245.719 17.8202 245.719 21.6266C245.719 25.4329 243.725 27.608 239.556 28.5143C238.106 29.058 236.475 28.8768 234.843 28.8768Z" fill="#AD283D"/>
<path d="M260.039 29.0581C256.595 29.0581 253.514 28.5143 250.432 27.0643C249.526 26.7018 248.076 26.158 249.163 24.8892C249.888 23.9829 250.07 21.4453 252.426 22.7141C255.326 24.3454 258.407 24.7079 261.67 24.5267C263.301 24.3454 264.933 24.1642 265.114 21.9892C265.295 19.9953 263.845 19.6328 262.214 19.2703C259.858 18.9078 257.682 18.5453 255.326 18.0015C251.52 17.0952 249.707 14.9202 249.526 11.4763C249.526 7.66997 251.339 5.67607 255.326 4.58854C259.314 3.68226 263.12 3.86356 266.927 5.3136C267.833 5.67611 269.827 5.67607 268.92 7.30737C268.195 8.57616 267.833 11.295 264.933 9.845C262.758 8.75746 260.22 8.75746 257.682 8.93872C256.414 9.11997 255.326 9.11997 255.326 10.7513C255.145 12.3826 256.232 13.1076 257.501 13.4701C259.858 14.0139 262.033 14.1952 264.389 14.7389C268.92 15.6452 270.733 17.639 270.733 21.4454C270.733 25.433 268.92 27.608 264.389 28.5143C262.939 28.8768 261.489 28.8768 260.039 29.0581Z" fill="#AD283D"/>
<path d="M125.365 4.58849C127.54 4.58849 129.897 4.76975 132.072 4.58849C134.247 4.40724 134.065 5.49481 134.247 7.12612C134.247 8.75742 133.884 9.48246 132.072 9.30121C129.715 9.11995 127.178 9.30121 124.821 9.30121C122.828 9.11995 121.921 9.66365 122.103 11.8387C122.103 13.8325 122.465 14.7388 124.821 14.5576C127.178 14.3763 129.534 14.5576 131.89 14.5576C134.065 14.3763 134.247 15.2826 134.247 17.2764C134.247 19.2702 133.34 19.4515 131.709 19.4515C129.353 19.2702 126.815 19.4515 124.459 19.4515C122.828 19.4515 122.102 19.814 122.284 21.6266C122.465 23.0766 122.284 24.3454 122.284 25.7954C122.465 27.7893 122.284 29.058 119.565 29.058C117.027 29.058 117.027 27.7893 117.027 25.9768C117.027 19.6328 117.027 13.4701 117.027 7.12612C117.027 5.31356 117.571 4.58856 119.384 4.76981C121.015 4.76981 123.19 4.58849 125.365 4.58849Z" fill="#AD283D"/>
<path d="M156.904 18.7266C156.904 16.5515 156.723 14.1952 156.904 12.0201C157.266 9.4825 156.179 8.75741 153.822 9.11992C152.916 9.30118 152.191 9.11992 151.285 9.11992C149.472 9.30118 148.385 8.93873 148.385 6.58241C148.385 4.40734 149.291 4.2261 151.104 4.2261C156.723 4.2261 162.341 4.2261 167.96 4.2261C169.592 4.2261 170.679 4.22608 170.679 6.58241C170.679 8.57622 169.954 9.11992 168.142 9.11992C162.341 9.11992 162.341 9.30121 162.341 14.9201C162.341 18.5452 162.16 22.1704 162.341 25.7955C162.523 28.1518 161.435 28.6956 159.441 28.6956C157.448 28.6956 156.541 28.1519 156.723 25.9768C157.085 23.6205 156.904 21.2641 156.904 18.7266Z" fill="#AD283D"/>
<path d="M139.141 16.1889C139.141 12.9263 139.322 9.84499 139.141 6.58238C138.96 4.0448 140.591 4.58855 142.041 4.40729C143.672 4.40729 144.941 4.22606 144.941 6.58238C144.76 13.1076 144.76 19.6327 144.941 26.3392C144.941 28.8768 143.491 28.5144 141.86 28.6956C140.047 28.8769 139.141 28.333 139.322 26.3392C139.141 22.8953 139.141 19.6328 139.141 16.1889Z" fill="#AD283D"/>
<path d="M243.039 40.1014C238.598 40.2383 234.65 38.6221 230.639 37.3625C228.706 36.838 226.869 35.7778 224.905 35.4316C222.732 35.2321 222.207 34.0348 222.91 32.135C223.55 30.5907 224.422 29.8244 226.291 30.7063C230.89 32.8059 235.489 34.9044 240.088 37.004C241.485 37.434 241.317 39.4292 243.039 40.1014Z" fill="#EB2A41"/>
</svg>
